<mxfile host="app.diagrams.net" modified="2023-10-11T21:34:25.046Z" agent="Mozilla/5.0 (X11; Linux x86_64) AppleWebKit/537.36 (KHTML, like Gecko) Chrome/117.0.0.0 Safari/537.36" etag="rv6GuoZpc3BYfmgqtKx1" version="22.0.0" type="github">
  <diagram name="Page-1" id="5d7acffa-a066-3a61-03fe-96351882024d">
    <mxGraphModel dx="1062" dy="567" grid="1" gridSize="10" guides="1" tooltips="1" connect="1" arrows="1" fold="1" page="1" pageScale="1" pageWidth="4681" pageHeight="3300" background="#ffffff" math="0" shadow="0">
      <root>
        <mxCell id="0" />
        <mxCell id="1" parent="0" />
        <mxCell id="TcA1ypuRorId2Owh4Mq8-12" style="edgeStyle=orthogonalEdgeStyle;rounded=0;orthogonalLoop=1;jettySize=auto;html=1;entryX=0.218;entryY=0.274;entryDx=0;entryDy=0;entryPerimeter=0;endArrow=none;endFill=0;" edge="1" parent="1" source="TcA1ypuRorId2Owh4Mq8-1" target="TcA1ypuRorId2Owh4Mq8-7">
          <mxGeometry relative="1" as="geometry">
            <mxPoint x="130" y="221" as="targetPoint" />
            <Array as="points">
              <mxPoint x="400" y="246" />
              <mxPoint x="400" y="161" />
              <mxPoint x="100" y="161" />
              <mxPoint x="100" y="201" />
              <mxPoint x="133" y="201" />
            </Array>
          </mxGeometry>
        </mxCell>
        <mxCell id="TcA1ypuRorId2Owh4Mq8-1" value="PC" style="rounded=1;whiteSpace=wrap;html=1;rotation=-90;" vertex="1" parent="1">
          <mxGeometry x="290" y="231" width="85" height="30" as="geometry" />
        </mxCell>
        <mxCell id="TcA1ypuRorId2Owh4Mq8-16" value="" style="edgeStyle=orthogonalEdgeStyle;rounded=0;orthogonalLoop=1;jettySize=auto;html=1;endArrow=none;endFill=0;" edge="1" parent="1" source="TcA1ypuRorId2Owh4Mq8-7" target="TcA1ypuRorId2Owh4Mq8-10">
          <mxGeometry relative="1" as="geometry">
            <Array as="points">
              <mxPoint x="220" y="221" />
              <mxPoint x="220" y="221" />
            </Array>
          </mxGeometry>
        </mxCell>
        <mxCell id="TcA1ypuRorId2Owh4Mq8-17" value="pc+4" style="edgeLabel;html=1;align=center;verticalAlign=middle;resizable=0;points=[];" vertex="1" connectable="0" parent="TcA1ypuRorId2Owh4Mq8-16">
          <mxGeometry x="-0.11" relative="1" as="geometry">
            <mxPoint as="offset" />
          </mxGeometry>
        </mxCell>
        <mxCell id="TcA1ypuRorId2Owh4Mq8-7" value="pc&lt;br&gt;add" style="shape=step;perimeter=stepPerimeter;whiteSpace=wrap;html=1;fixedSize=1;" vertex="1" parent="1">
          <mxGeometry x="120" y="181" width="60" height="80" as="geometry" />
        </mxCell>
        <mxCell id="TcA1ypuRorId2Owh4Mq8-14" style="edgeStyle=orthogonalEdgeStyle;rounded=0;orthogonalLoop=1;jettySize=auto;html=1;entryX=0;entryY=0.75;entryDx=0;entryDy=0;endArrow=none;endFill=0;" edge="1" parent="1" source="TcA1ypuRorId2Owh4Mq8-8" target="TcA1ypuRorId2Owh4Mq8-7">
          <mxGeometry relative="1" as="geometry">
            <Array as="points">
              <mxPoint x="110" y="231" />
              <mxPoint x="110" y="231" />
            </Array>
          </mxGeometry>
        </mxCell>
        <mxCell id="TcA1ypuRorId2Owh4Mq8-8" value="4" style="text;html=1;strokeColor=none;fillColor=none;align=center;verticalAlign=middle;whiteSpace=wrap;rounded=0;" vertex="1" parent="1">
          <mxGeometry x="77" y="216" width="30" height="30" as="geometry" />
        </mxCell>
        <mxCell id="TcA1ypuRorId2Owh4Mq8-11" style="edgeStyle=orthogonalEdgeStyle;rounded=0;orthogonalLoop=1;jettySize=auto;html=1;entryX=0.5;entryY=0;entryDx=0;entryDy=0;endArrow=none;endFill=0;" edge="1" parent="1" source="TcA1ypuRorId2Owh4Mq8-10" target="TcA1ypuRorId2Owh4Mq8-1">
          <mxGeometry relative="1" as="geometry" />
        </mxCell>
        <mxCell id="TcA1ypuRorId2Owh4Mq8-18" style="edgeStyle=orthogonalEdgeStyle;rounded=0;orthogonalLoop=1;jettySize=auto;html=1;exitX=1;exitY=0.5;exitDx=0;exitDy=0;endArrow=none;endFill=0;" edge="1" parent="1" source="TcA1ypuRorId2Owh4Mq8-10">
          <mxGeometry relative="1" as="geometry">
            <mxPoint x="50" y="341" as="targetPoint" />
            <Array as="points">
              <mxPoint x="255" y="371" />
              <mxPoint x="50" y="371" />
            </Array>
          </mxGeometry>
        </mxCell>
        <mxCell id="TcA1ypuRorId2Owh4Mq8-19" value="pc sel" style="edgeLabel;html=1;align=center;verticalAlign=middle;resizable=0;points=[];" vertex="1" connectable="0" parent="TcA1ypuRorId2Owh4Mq8-18">
          <mxGeometry x="0.5416" y="-2" relative="1" as="geometry">
            <mxPoint x="27" y="-8" as="offset" />
          </mxGeometry>
        </mxCell>
        <mxCell id="TcA1ypuRorId2Owh4Mq8-20" style="edgeStyle=orthogonalEdgeStyle;rounded=0;orthogonalLoop=1;jettySize=auto;html=1;exitX=0.75;exitY=1;exitDx=0;exitDy=0;endArrow=none;endFill=0;startArrow=none;startFill=0;" edge="1" parent="1" source="TcA1ypuRorId2Owh4Mq8-10">
          <mxGeometry relative="1" as="geometry">
            <mxPoint x="190" y="321.00000000000006" as="targetPoint" />
          </mxGeometry>
        </mxCell>
        <mxCell id="TcA1ypuRorId2Owh4Mq8-22" value="pc br" style="edgeLabel;html=1;align=center;verticalAlign=middle;resizable=0;points=[];" vertex="1" connectable="0" parent="TcA1ypuRorId2Owh4Mq8-20">
          <mxGeometry x="-0.3302" y="1" relative="1" as="geometry">
            <mxPoint x="9" y="-4" as="offset" />
          </mxGeometry>
        </mxCell>
        <mxCell id="TcA1ypuRorId2Owh4Mq8-10" value="" style="shape=trapezoid;perimeter=trapezoidPerimeter;whiteSpace=wrap;html=1;fixedSize=1;rotation=90;" vertex="1" parent="1">
          <mxGeometry x="220" y="226" width="70" height="40" as="geometry" />
        </mxCell>
        <mxCell id="TcA1ypuRorId2Owh4Mq8-24" style="edgeStyle=orthogonalEdgeStyle;rounded=0;orthogonalLoop=1;jettySize=auto;html=1;exitX=0;exitY=0.25;exitDx=0;exitDy=0;strokeWidth=1;endArrow=none;endFill=0;" edge="1" parent="1" source="TcA1ypuRorId2Owh4Mq8-23">
          <mxGeometry relative="1" as="geometry">
            <mxPoint x="400" y="241" as="targetPoint" />
          </mxGeometry>
        </mxCell>
        <mxCell id="TcA1ypuRorId2Owh4Mq8-25" value="addr" style="edgeLabel;html=1;align=center;verticalAlign=middle;resizable=0;points=[];" vertex="1" connectable="0" parent="TcA1ypuRorId2Owh4Mq8-24">
          <mxGeometry x="-0.3248" relative="1" as="geometry">
            <mxPoint as="offset" />
          </mxGeometry>
        </mxCell>
        <mxCell id="TcA1ypuRorId2Owh4Mq8-26" style="edgeStyle=orthogonalEdgeStyle;rounded=0;orthogonalLoop=1;jettySize=auto;html=1;exitX=1;exitY=0.25;exitDx=0;exitDy=0;endArrow=none;endFill=0;entryX=0.399;entryY=0.046;entryDx=0;entryDy=0;entryPerimeter=0;" edge="1" parent="1" source="TcA1ypuRorId2Owh4Mq8-23" target="TcA1ypuRorId2Owh4Mq8-28">
          <mxGeometry relative="1" as="geometry">
            <mxPoint x="600" y="271.24242424242425" as="targetPoint" />
          </mxGeometry>
        </mxCell>
        <mxCell id="TcA1ypuRorId2Owh4Mq8-27" value="opcode" style="edgeLabel;html=1;align=center;verticalAlign=middle;resizable=0;points=[];" vertex="1" connectable="0" parent="TcA1ypuRorId2Owh4Mq8-26">
          <mxGeometry x="-0.0589" relative="1" as="geometry">
            <mxPoint as="offset" />
          </mxGeometry>
        </mxCell>
        <mxCell id="TcA1ypuRorId2Owh4Mq8-23" value="instruction&lt;br&gt;memory" style="whiteSpace=wrap;html=1;aspect=fixed;" vertex="1" parent="1">
          <mxGeometry x="460" y="251" width="80" height="80" as="geometry" />
        </mxCell>
        <mxCell id="TcA1ypuRorId2Owh4Mq8-29" style="edgeStyle=orthogonalEdgeStyle;rounded=0;orthogonalLoop=1;jettySize=auto;html=1;exitX=0.856;exitY=0.046;exitDx=0;exitDy=0;exitPerimeter=0;endArrow=none;endFill=0;" edge="1" parent="1" source="TcA1ypuRorId2Owh4Mq8-28">
          <mxGeometry relative="1" as="geometry">
            <mxPoint x="400" y="201" as="targetPoint" />
            <Array as="points">
              <mxPoint x="619" y="201" />
              <mxPoint x="400" y="201" />
            </Array>
          </mxGeometry>
        </mxCell>
        <mxCell id="TcA1ypuRorId2Owh4Mq8-30" value="pc" style="edgeLabel;html=1;align=center;verticalAlign=middle;resizable=0;points=[];" vertex="1" connectable="0" parent="TcA1ypuRorId2Owh4Mq8-29">
          <mxGeometry x="-0.2622" y="2" relative="1" as="geometry">
            <mxPoint x="30" y="-2" as="offset" />
          </mxGeometry>
        </mxCell>
        <mxCell id="TcA1ypuRorId2Owh4Mq8-46" style="edgeStyle=orthogonalEdgeStyle;rounded=0;orthogonalLoop=1;jettySize=auto;html=1;endArrow=none;endFill=0;exitX=0.433;exitY=1.016;exitDx=0;exitDy=0;exitPerimeter=0;" edge="1" parent="1" source="TcA1ypuRorId2Owh4Mq8-28" target="TcA1ypuRorId2Owh4Mq8-33">
          <mxGeometry relative="1" as="geometry" />
        </mxCell>
        <mxCell id="TcA1ypuRorId2Owh4Mq8-47" value="opcode" style="edgeLabel;html=1;align=center;verticalAlign=middle;resizable=0;points=[];" vertex="1" connectable="0" parent="TcA1ypuRorId2Owh4Mq8-46">
          <mxGeometry x="-0.3126" relative="1" as="geometry">
            <mxPoint x="9" as="offset" />
          </mxGeometry>
        </mxCell>
        <mxCell id="TcA1ypuRorId2Owh4Mq8-28" value="IF" style="rounded=1;whiteSpace=wrap;html=1;rotation=-90;" vertex="1" parent="1">
          <mxGeometry x="535" y="236" width="195" height="30" as="geometry" />
        </mxCell>
        <mxCell id="TcA1ypuRorId2Owh4Mq8-40" value="" style="edgeStyle=orthogonalEdgeStyle;rounded=0;orthogonalLoop=1;jettySize=auto;html=1;endArrow=none;endFill=0;" edge="1" parent="1" source="TcA1ypuRorId2Owh4Mq8-31">
          <mxGeometry relative="1" as="geometry">
            <mxPoint x="810" y="411" as="targetPoint" />
            <Array as="points">
              <mxPoint x="790" y="341" />
              <mxPoint x="790" y="411" />
            </Array>
          </mxGeometry>
        </mxCell>
        <mxCell id="TcA1ypuRorId2Owh4Mq8-45" value="rd data" style="edgeLabel;html=1;align=center;verticalAlign=middle;resizable=0;points=[];" vertex="1" connectable="0" parent="TcA1ypuRorId2Owh4Mq8-40">
          <mxGeometry x="-0.4782" y="1" relative="1" as="geometry">
            <mxPoint as="offset" />
          </mxGeometry>
        </mxCell>
        <mxCell id="TcA1ypuRorId2Owh4Mq8-42" value="" style="edgeStyle=orthogonalEdgeStyle;rounded=0;orthogonalLoop=1;jettySize=auto;html=1;endArrow=none;endFill=0;" edge="1" parent="1" source="TcA1ypuRorId2Owh4Mq8-31">
          <mxGeometry relative="1" as="geometry">
            <mxPoint x="770" y="441" as="targetPoint" />
            <Array as="points">
              <mxPoint x="771" y="321" />
              <mxPoint x="771" y="441" />
            </Array>
          </mxGeometry>
        </mxCell>
        <mxCell id="TcA1ypuRorId2Owh4Mq8-43" value="rd" style="edgeLabel;html=1;align=center;verticalAlign=middle;resizable=0;points=[];" vertex="1" connectable="0" parent="TcA1ypuRorId2Owh4Mq8-42">
          <mxGeometry x="-0.7931" y="3" relative="1" as="geometry">
            <mxPoint y="-3" as="offset" />
          </mxGeometry>
        </mxCell>
        <mxCell id="TcA1ypuRorId2Owh4Mq8-31" value="regfile" style="whiteSpace=wrap;html=1;aspect=fixed;" vertex="1" parent="1">
          <mxGeometry x="860" y="277" width="80" height="80" as="geometry" />
        </mxCell>
        <mxCell id="TcA1ypuRorId2Owh4Mq8-54" value="" style="edgeStyle=orthogonalEdgeStyle;rounded=0;orthogonalLoop=1;jettySize=auto;html=1;entryX=0.531;entryY=0.035;entryDx=0;entryDy=0;entryPerimeter=0;endArrow=none;endFill=0;" edge="1" parent="1">
          <mxGeometry relative="1" as="geometry">
            <mxPoint x="760" y="243" as="sourcePoint" />
            <mxPoint x="1005.55" y="241.9549999999998" as="targetPoint" />
            <Array as="points">
              <mxPoint x="882" y="243" />
            </Array>
          </mxGeometry>
        </mxCell>
        <mxCell id="TcA1ypuRorId2Owh4Mq8-55" value="op" style="edgeLabel;html=1;align=center;verticalAlign=middle;resizable=0;points=[];" vertex="1" connectable="0" parent="TcA1ypuRorId2Owh4Mq8-54">
          <mxGeometry x="0.0854" y="2" relative="1" as="geometry">
            <mxPoint as="offset" />
          </mxGeometry>
        </mxCell>
        <mxCell id="TcA1ypuRorId2Owh4Mq8-33" value="Decoder" style="rounded=0;whiteSpace=wrap;html=1;" vertex="1" parent="1">
          <mxGeometry x="700" y="181" width="60" height="167.5" as="geometry" />
        </mxCell>
        <mxCell id="TcA1ypuRorId2Owh4Mq8-34" style="edgeStyle=orthogonalEdgeStyle;rounded=0;orthogonalLoop=1;jettySize=auto;html=1;exitX=0;exitY=0.25;exitDx=0;exitDy=0;endArrow=none;endFill=0;entryX=1;entryY=0.5;entryDx=0;entryDy=0;" edge="1" parent="1" source="TcA1ypuRorId2Owh4Mq8-31" target="TcA1ypuRorId2Owh4Mq8-33">
          <mxGeometry relative="1" as="geometry">
            <mxPoint x="760" y="291" as="targetPoint" />
            <Array as="points">
              <mxPoint x="860" y="291" />
              <mxPoint x="810" y="291" />
              <mxPoint x="810" y="265" />
            </Array>
          </mxGeometry>
        </mxCell>
        <mxCell id="TcA1ypuRorId2Owh4Mq8-35" value="rs1" style="edgeLabel;html=1;align=center;verticalAlign=middle;resizable=0;points=[];" vertex="1" connectable="0" parent="TcA1ypuRorId2Owh4Mq8-34">
          <mxGeometry x="0.082" y="-3" relative="1" as="geometry">
            <mxPoint as="offset" />
          </mxGeometry>
        </mxCell>
        <mxCell id="TcA1ypuRorId2Owh4Mq8-37" value="" style="endArrow=none;html=1;rounded=0;entryX=0.016;entryY=0.639;entryDx=0;entryDy=0;entryPerimeter=0;exitX=1.012;exitY=0.856;exitDx=0;exitDy=0;exitPerimeter=0;" edge="1" parent="1">
          <mxGeometry width="50" height="50" relative="1" as="geometry">
            <mxPoint x="760" y="301.00000000000006" as="sourcePoint" />
            <mxPoint x="860.5600000000002" y="302.7" as="targetPoint" />
          </mxGeometry>
        </mxCell>
        <mxCell id="TcA1ypuRorId2Owh4Mq8-38" value="rs2" style="edgeLabel;html=1;align=center;verticalAlign=middle;resizable=0;points=[];" vertex="1" connectable="0" parent="TcA1ypuRorId2Owh4Mq8-37">
          <mxGeometry x="0.3636" y="-2" relative="1" as="geometry">
            <mxPoint x="-10" y="-3" as="offset" />
          </mxGeometry>
        </mxCell>
        <mxCell id="TcA1ypuRorId2Owh4Mq8-48" value="ID" style="rounded=1;whiteSpace=wrap;html=1;rotation=-90;" vertex="1" parent="1">
          <mxGeometry x="922" y="241" width="195" height="30" as="geometry" />
        </mxCell>
        <mxCell id="TcA1ypuRorId2Owh4Mq8-50" value="" style="endArrow=none;html=1;rounded=0;entryX=0.17;entryY=0.015;entryDx=0;entryDy=0;entryPerimeter=0;exitX=1.016;exitY=0.639;exitDx=0;exitDy=0;exitPerimeter=0;" edge="1" parent="1" target="TcA1ypuRorId2Owh4Mq8-48">
          <mxGeometry width="50" height="50" relative="1" as="geometry">
            <mxPoint x="941.2800000000002" y="319.12" as="sourcePoint" />
            <mxPoint x="992.2" y="319.1049999999999" as="targetPoint" />
          </mxGeometry>
        </mxCell>
        <mxCell id="TcA1ypuRorId2Owh4Mq8-52" value="rs1 data" style="edgeLabel;html=1;align=center;verticalAlign=middle;resizable=0;points=[];" vertex="1" connectable="0" parent="TcA1ypuRorId2Owh4Mq8-50">
          <mxGeometry x="0.0245" y="1" relative="1" as="geometry">
            <mxPoint as="offset" />
          </mxGeometry>
        </mxCell>
        <mxCell id="TcA1ypuRorId2Owh4Mq8-51" value="" style="endArrow=none;html=1;rounded=0;entryX=0.08;entryY=-0.05;entryDx=0;entryDy=0;entryPerimeter=0;exitX=0.986;exitY=0.821;exitDx=0;exitDy=0;exitPerimeter=0;" edge="1" parent="1" source="TcA1ypuRorId2Owh4Mq8-31" target="TcA1ypuRorId2Owh4Mq8-48">
          <mxGeometry width="50" height="50" relative="1" as="geometry">
            <mxPoint x="951" y="332" as="sourcePoint" />
            <mxPoint x="1002" y="332" as="targetPoint" />
          </mxGeometry>
        </mxCell>
        <mxCell id="TcA1ypuRorId2Owh4Mq8-53" value="rs2 data" style="edgeLabel;html=1;align=center;verticalAlign=middle;resizable=0;points=[];" vertex="1" connectable="0" parent="TcA1ypuRorId2Owh4Mq8-51">
          <mxGeometry x="-0.1357" y="-4" relative="1" as="geometry">
            <mxPoint x="6" y="-5" as="offset" />
          </mxGeometry>
        </mxCell>
        <mxCell id="TcA1ypuRorId2Owh4Mq8-56" value="" style="endArrow=none;html=1;rounded=0;entryX=0.919;entryY=-0.046;entryDx=0;entryDy=0;entryPerimeter=0;exitX=0.921;exitY=0.995;exitDx=0;exitDy=0;exitPerimeter=0;" edge="1" parent="1" source="TcA1ypuRorId2Owh4Mq8-28">
          <mxGeometry width="50" height="50" relative="1" as="geometry">
            <mxPoint x="645.5500000000002" y="168.0000000000001" as="sourcePoint" />
            <mxPoint x="1003.1199999999999" y="169.29499999999985" as="targetPoint" />
          </mxGeometry>
        </mxCell>
        <mxCell id="TcA1ypuRorId2Owh4Mq8-57" value="pc" style="edgeLabel;html=1;align=center;verticalAlign=middle;resizable=0;points=[];" vertex="1" connectable="0" parent="TcA1ypuRorId2Owh4Mq8-56">
          <mxGeometry x="0.2441" y="-2" relative="1" as="geometry">
            <mxPoint y="-2" as="offset" />
          </mxGeometry>
        </mxCell>
        <mxCell id="TcA1ypuRorId2Owh4Mq8-61" style="edgeStyle=orthogonalEdgeStyle;rounded=0;orthogonalLoop=1;jettySize=auto;html=1;exitX=1;exitY=0.5;exitDx=0;exitDy=0;entryX=0.75;entryY=0;entryDx=0;entryDy=0;endArrow=none;endFill=0;" edge="1" parent="1" source="TcA1ypuRorId2Owh4Mq8-58" target="TcA1ypuRorId2Owh4Mq8-48">
          <mxGeometry relative="1" as="geometry">
            <Array as="points">
              <mxPoint x="1005" y="206" />
            </Array>
          </mxGeometry>
        </mxCell>
        <mxCell id="TcA1ypuRorId2Owh4Mq8-62" value="imm" style="edgeLabel;html=1;align=center;verticalAlign=middle;resizable=0;points=[];" vertex="1" connectable="0" parent="TcA1ypuRorId2Owh4Mq8-61">
          <mxGeometry x="-0.0802" relative="1" as="geometry">
            <mxPoint as="offset" />
          </mxGeometry>
        </mxCell>
        <mxCell id="TcA1ypuRorId2Owh4Mq8-58" value="genimm" style="shape=parallelogram;perimeter=parallelogramPerimeter;whiteSpace=wrap;html=1;fixedSize=1;" vertex="1" parent="1">
          <mxGeometry x="850" y="191" width="70" height="30" as="geometry" />
        </mxCell>
        <mxCell id="TcA1ypuRorId2Owh4Mq8-63" style="edgeStyle=orthogonalEdgeStyle;rounded=0;orthogonalLoop=1;jettySize=auto;html=1;exitX=0;exitY=0.5;exitDx=0;exitDy=0;entryX=1.002;entryY=0.144;entryDx=0;entryDy=0;entryPerimeter=0;endArrow=none;endFill=0;" edge="1" parent="1" source="TcA1ypuRorId2Owh4Mq8-58" target="TcA1ypuRorId2Owh4Mq8-33">
          <mxGeometry relative="1" as="geometry" />
        </mxCell>
        <mxCell id="TcA1ypuRorId2Owh4Mq8-64" value="opcode" style="edgeLabel;html=1;align=center;verticalAlign=middle;resizable=0;points=[];" vertex="1" connectable="0" parent="TcA1ypuRorId2Owh4Mq8-63">
          <mxGeometry x="0.0325" y="2" relative="1" as="geometry">
            <mxPoint y="-2" as="offset" />
          </mxGeometry>
        </mxCell>
        <mxCell id="TcA1ypuRorId2Owh4Mq8-66" value="" style="shape=trapezoid;perimeter=trapezoidPerimeter;whiteSpace=wrap;html=1;fixedSize=1;rotation=90;" vertex="1" parent="1">
          <mxGeometry x="1090" y="206" width="60" height="20" as="geometry" />
        </mxCell>
        <mxCell id="TcA1ypuRorId2Owh4Mq8-67" value="" style="endArrow=none;html=1;rounded=0;entryX=0.25;entryY=1;entryDx=0;entryDy=0;exitX=0.918;exitY=1.043;exitDx=0;exitDy=0;exitPerimeter=0;" edge="1" parent="1" target="TcA1ypuRorId2Owh4Mq8-66">
          <mxGeometry width="50" height="50" relative="1" as="geometry">
            <mxPoint x="1035.79" y="199.49" as="sourcePoint" />
            <mxPoint x="1200" y="295" as="targetPoint" />
          </mxGeometry>
        </mxCell>
        <mxCell id="TcA1ypuRorId2Owh4Mq8-68" value="pc" style="edgeLabel;html=1;align=center;verticalAlign=middle;resizable=0;points=[];" vertex="1" connectable="0" parent="TcA1ypuRorId2Owh4Mq8-67">
          <mxGeometry x="0.2161" y="2" relative="1" as="geometry">
            <mxPoint as="offset" />
          </mxGeometry>
        </mxCell>
        <mxCell id="TcA1ypuRorId2Owh4Mq8-69" value="" style="endArrow=none;html=1;rounded=0;entryX=0.75;entryY=1;entryDx=0;entryDy=0;exitX=0.75;exitY=1;exitDx=0;exitDy=0;" edge="1" parent="1" source="TcA1ypuRorId2Owh4Mq8-66">
          <mxGeometry width="50" height="50" relative="1" as="geometry">
            <mxPoint x="1150" y="345" as="sourcePoint" />
            <mxPoint x="1034.5" y="232.2500000000001" as="targetPoint" />
          </mxGeometry>
        </mxCell>
        <mxCell id="TcA1ypuRorId2Owh4Mq8-70" value="rs1 data" style="edgeLabel;html=1;align=center;verticalAlign=middle;resizable=0;points=[];" vertex="1" connectable="0" parent="TcA1ypuRorId2Owh4Mq8-69">
          <mxGeometry x="-0.1521" y="1" relative="1" as="geometry">
            <mxPoint y="-2" as="offset" />
          </mxGeometry>
        </mxCell>
        <mxCell id="TcA1ypuRorId2Owh4Mq8-80" style="edgeStyle=orthogonalEdgeStyle;rounded=0;orthogonalLoop=1;jettySize=auto;html=1;exitX=0.75;exitY=1;exitDx=0;exitDy=0;entryX=0.25;entryY=1;entryDx=0;entryDy=0;endArrow=none;endFill=0;" edge="1" parent="1" source="TcA1ypuRorId2Owh4Mq8-71" target="TcA1ypuRorId2Owh4Mq8-48">
          <mxGeometry relative="1" as="geometry">
            <Array as="points">
              <mxPoint x="1035" y="303" />
            </Array>
          </mxGeometry>
        </mxCell>
        <mxCell id="TcA1ypuRorId2Owh4Mq8-82" value="rs2 data" style="edgeLabel;html=1;align=center;verticalAlign=middle;resizable=0;points=[];" vertex="1" connectable="0" parent="TcA1ypuRorId2Owh4Mq8-80">
          <mxGeometry x="-0.0946" relative="1" as="geometry">
            <mxPoint as="offset" />
          </mxGeometry>
        </mxCell>
        <mxCell id="TcA1ypuRorId2Owh4Mq8-71" value="" style="shape=trapezoid;perimeter=trapezoidPerimeter;whiteSpace=wrap;html=1;fixedSize=1;rotation=90;" vertex="1" parent="1">
          <mxGeometry x="1090" y="278" width="60" height="20" as="geometry" />
        </mxCell>
        <mxCell id="TcA1ypuRorId2Owh4Mq8-72" value="alu" style="shape=step;perimeter=stepPerimeter;whiteSpace=wrap;html=1;fixedSize=1;" vertex="1" parent="1">
          <mxGeometry x="1220" y="191" width="60" height="80" as="geometry" />
        </mxCell>
        <mxCell id="TcA1ypuRorId2Owh4Mq8-73" style="edgeStyle=orthogonalEdgeStyle;rounded=0;orthogonalLoop=1;jettySize=auto;html=1;exitX=0.25;exitY=0;exitDx=0;exitDy=0;entryX=0.933;entryY=0.894;entryDx=0;entryDy=0;entryPerimeter=0;endArrow=none;endFill=0;" edge="1" parent="1" source="TcA1ypuRorId2Owh4Mq8-72" target="TcA1ypuRorId2Owh4Mq8-48">
          <mxGeometry relative="1" as="geometry" />
        </mxCell>
        <mxCell id="TcA1ypuRorId2Owh4Mq8-74" value="op" style="edgeLabel;html=1;align=center;verticalAlign=middle;resizable=0;points=[];" vertex="1" connectable="0" parent="TcA1ypuRorId2Owh4Mq8-73">
          <mxGeometry x="-0.2776" y="3" relative="1" as="geometry">
            <mxPoint y="-3" as="offset" />
          </mxGeometry>
        </mxCell>
        <mxCell id="TcA1ypuRorId2Owh4Mq8-75" style="edgeStyle=orthogonalEdgeStyle;rounded=0;orthogonalLoop=1;jettySize=auto;html=1;exitX=0.5;exitY=0;exitDx=0;exitDy=0;entryX=0.201;entryY=0.321;entryDx=0;entryDy=0;entryPerimeter=0;endArrow=none;endFill=0;" edge="1" parent="1" source="TcA1ypuRorId2Owh4Mq8-66" target="TcA1ypuRorId2Owh4Mq8-72">
          <mxGeometry relative="1" as="geometry" />
        </mxCell>
        <mxCell id="TcA1ypuRorId2Owh4Mq8-76" value="a" style="edgeLabel;html=1;align=center;verticalAlign=middle;resizable=0;points=[];" vertex="1" connectable="0" parent="TcA1ypuRorId2Owh4Mq8-75">
          <mxGeometry x="0.0484" relative="1" as="geometry">
            <mxPoint as="offset" />
          </mxGeometry>
        </mxCell>
        <mxCell id="TcA1ypuRorId2Owh4Mq8-77" style="edgeStyle=orthogonalEdgeStyle;rounded=0;orthogonalLoop=1;jettySize=auto;html=1;exitX=0.5;exitY=0;exitDx=0;exitDy=0;entryX=0.115;entryY=0.803;entryDx=0;entryDy=0;entryPerimeter=0;endArrow=none;endFill=0;" edge="1" parent="1" source="TcA1ypuRorId2Owh4Mq8-71" target="TcA1ypuRorId2Owh4Mq8-72">
          <mxGeometry relative="1" as="geometry" />
        </mxCell>
        <mxCell id="TcA1ypuRorId2Owh4Mq8-78" value="b" style="edgeLabel;html=1;align=center;verticalAlign=middle;resizable=0;points=[];" vertex="1" connectable="0" parent="TcA1ypuRorId2Owh4Mq8-77">
          <mxGeometry x="0.543" y="1" relative="1" as="geometry">
            <mxPoint as="offset" />
          </mxGeometry>
        </mxCell>
        <mxCell id="TcA1ypuRorId2Owh4Mq8-79" style="edgeStyle=orthogonalEdgeStyle;rounded=0;orthogonalLoop=1;jettySize=auto;html=1;exitX=0.25;exitY=1;exitDx=0;exitDy=0;entryX=0.413;entryY=0.993;entryDx=0;entryDy=0;entryPerimeter=0;endArrow=none;endFill=0;" edge="1" parent="1" source="TcA1ypuRorId2Owh4Mq8-71" target="TcA1ypuRorId2Owh4Mq8-48">
          <mxGeometry relative="1" as="geometry" />
        </mxCell>
        <mxCell id="TcA1ypuRorId2Owh4Mq8-81" value="imm" style="edgeLabel;html=1;align=center;verticalAlign=middle;resizable=0;points=[];" vertex="1" connectable="0" parent="TcA1ypuRorId2Owh4Mq8-79">
          <mxGeometry x="0.0997" y="-1" relative="1" as="geometry">
            <mxPoint as="offset" />
          </mxGeometry>
        </mxCell>
        <mxCell id="TcA1ypuRorId2Owh4Mq8-87" style="edgeStyle=orthogonalEdgeStyle;rounded=0;orthogonalLoop=1;jettySize=auto;html=1;exitX=0.25;exitY=1;exitDx=0;exitDy=0;endArrow=oval;endFill=1;" edge="1" parent="1" source="TcA1ypuRorId2Owh4Mq8-83">
          <mxGeometry relative="1" as="geometry">
            <mxPoint x="1050" y="274" as="targetPoint" />
            <Array as="points">
              <mxPoint x="1050" y="355" />
              <mxPoint x="1050" y="274" />
            </Array>
          </mxGeometry>
        </mxCell>
        <mxCell id="TcA1ypuRorId2Owh4Mq8-88" value="imm" style="edgeLabel;html=1;align=center;verticalAlign=middle;resizable=0;points=[];" vertex="1" connectable="0" parent="TcA1ypuRorId2Owh4Mq8-87">
          <mxGeometry x="-0.76" y="4" relative="1" as="geometry">
            <mxPoint x="-3" y="-4" as="offset" />
          </mxGeometry>
        </mxCell>
        <mxCell id="TcA1ypuRorId2Owh4Mq8-83" value="" style="shape=trapezoid;perimeter=trapezoidPerimeter;whiteSpace=wrap;html=1;fixedSize=1;rotation=90;" vertex="1" parent="1">
          <mxGeometry x="1070" y="360" width="60" height="20" as="geometry" />
        </mxCell>
        <mxCell id="TcA1ypuRorId2Owh4Mq8-85" style="edgeStyle=orthogonalEdgeStyle;rounded=0;orthogonalLoop=1;jettySize=auto;html=1;exitX=1;exitY=0.5;exitDx=0;exitDy=0;entryX=0.75;entryY=1;entryDx=0;entryDy=0;endArrow=none;endFill=0;" edge="1" parent="1" source="TcA1ypuRorId2Owh4Mq8-84" target="TcA1ypuRorId2Owh4Mq8-83">
          <mxGeometry relative="1" as="geometry" />
        </mxCell>
        <mxCell id="TcA1ypuRorId2Owh4Mq8-84" value="4" style="text;html=1;strokeColor=none;fillColor=none;align=center;verticalAlign=middle;whiteSpace=wrap;rounded=0;" vertex="1" parent="1">
          <mxGeometry x="1050" y="370" width="20" height="30" as="geometry" />
        </mxCell>
      </root>
    </mxGraphModel>
  </diagram>
</mxfile>
